<svg width="153.195496" height="90.000000" viewBox="0 0 153.195 90" fill="none" xmlns="http://www.w3.org/2000/svg" xmlns:xlink="http://www.w3.org/1999/xlink">
	<defs/>
	<path id="Vector" d="M91.1 31.76L91.1 39.66C91.1 43.51 89.57 47.2 86.85 49.92C84.13 52.64 80.44 54.17 76.59 54.17C72.75 54.17 69.06 52.64 66.34 49.92C63.62 47.2 62.09 43.51 62.09 39.66L62.09 31.76C62.09 31.63 62.05 31.51 61.98 31.41C61.91 31.31 61.81 31.23 61.69 31.19L50.5 27.24C50.08 27.09 49.72 26.81 49.46 26.45C49.21 26.09 49.07 25.65 49.07 25.21C49.07 24.76 49.21 24.33 49.46 23.96C49.72 23.6 50.08 23.33 50.5 23.18L75.46 14.35C76.19 14.08 77 14.08 77.73 14.35L102.68 23.18C103.1 23.33 103.46 23.6 103.72 23.96C103.98 24.33 104.12 24.76 104.12 25.21C104.12 25.65 103.98 26.09 103.72 26.45C103.46 26.81 103.1 27.09 102.68 27.24L98.56 28.7C98.43 28.74 98.32 28.82 98.25 28.93C98.18 29.05 98.15 29.18 98.16 29.31L98.4 32.3C98.41 32.4 98.45 32.5 98.5 32.59C98.56 32.67 98.64 32.74 98.74 32.79C99.34 33.08 99.85 33.54 100.21 34.1C100.57 34.67 100.75 35.33 100.75 36L100.75 41.35C100.75 41.76 100.59 42.14 100.31 42.43C100.02 42.72 99.63 42.88 99.23 42.88L95.13 42.88C94.72 42.88 94.34 42.72 94.05 42.43C93.76 42.14 93.6 41.76 93.6 41.35L93.6 36C93.6 35.43 93.74 34.87 94.01 34.36C94.27 33.85 94.65 33.41 95.12 33.09C95.2 33.03 95.27 32.95 95.31 32.85C95.36 32.76 95.38 32.65 95.37 32.55L95.21 30.67C95.21 30.58 95.18 30.49 95.13 30.42C95.08 30.34 95.02 30.27 94.94 30.22C94.87 30.17 94.78 30.14 94.69 30.13C94.6 30.12 94.5 30.13 94.42 30.16L91.5 31.19C91.38 31.23 91.28 31.31 91.21 31.41C91.13 31.51 91.1 31.63 91.1 31.76L91.1 31.76ZM36.75 45.68L30.61 51.82C30.5 51.93 30.44 52.08 30.44 52.24C30.44 52.4 30.5 52.55 30.61 52.66L34.08 56.13C34.14 56.19 34.22 56.24 34.31 56.27C34.39 56.3 34.48 56.31 34.57 56.3C34.66 56.29 34.75 56.26 34.83 56.21C34.9 56.16 34.97 56.09 35.01 56.01L40.78 46.41C40.84 46.32 40.87 46.22 40.87 46.12C40.87 46.01 40.85 45.91 40.8 45.82C40.74 45.73 40.67 45.65 40.58 45.59C40.49 45.54 40.39 45.51 40.29 45.51C39.27 45.48 38.09 45.5 37.17 45.5C37.09 45.5 37.02 45.52 36.94 45.55C36.87 45.58 36.81 45.62 36.75 45.68ZM44.25 46.56L36.29 59.8C35.7 60.77 34.56 60.93 33.84 60.21L28.45 54.82C28.34 54.71 28.19 54.65 28.03 54.65C27.87 54.65 27.72 54.71 27.61 54.82L22.22 60.21C21.5 60.93 20.36 60.77 19.77 59.8L11.82 46.56C11.75 46.44 11.64 46.35 11.51 46.3C11.39 46.26 11.25 46.25 11.12 46.3C7.89 47.36 5.08 49.41 3.08 52.16C1.09 54.9 0.01 58.21 0 61.61L0 71.08C0 72.34 0.5 73.55 1.39 74.44C2.29 75.33 3.5 75.84 4.76 75.84L44.92 75.84C45.07 75.84 45.22 75.78 45.33 75.67C45.45 75.56 45.51 75.41 45.52 75.26C45.61 71.92 46.57 68.66 48.31 65.8C50.05 62.95 52.51 60.6 55.44 58.99C55.55 58.93 55.64 58.83 55.69 58.71C55.75 58.6 55.76 58.47 55.74 58.34C55.15 55.57 53.85 52.99 51.95 50.88C50.06 48.76 47.64 47.18 44.95 46.29C44.82 46.25 44.68 46.25 44.55 46.3C44.42 46.35 44.32 46.44 44.25 46.56L44.25 46.56ZM15.28 46.41C15.23 46.32 15.2 46.22 15.19 46.12C15.19 46.01 15.22 45.91 15.27 45.82C15.32 45.73 15.39 45.65 15.48 45.59C15.57 45.54 15.67 45.51 15.78 45.51C16.79 45.48 17.97 45.5 18.89 45.5C18.97 45.5 19.05 45.52 19.12 45.55C19.19 45.58 19.26 45.62 19.31 45.68L25.45 51.82C25.56 51.93 25.63 52.08 25.63 52.24C25.63 52.4 25.56 52.55 25.45 52.66L21.99 56.13C21.92 56.19 21.84 56.24 21.76 56.27C21.67 56.3 21.58 56.31 21.49 56.3C21.4 56.29 21.31 56.26 21.24 56.21C21.16 56.16 21.1 56.09 21.05 56.01L15.28 46.42L15.28 46.41ZM42.53 17.6C42.53 17.48 42.57 17.36 42.64 17.26C42.71 17.15 42.82 17.08 42.93 17.04L54.12 13.08C54.54 12.93 54.9 12.66 55.16 12.3C55.42 11.93 55.55 11.5 55.55 11.05C55.55 10.61 55.42 10.17 55.16 9.81C54.9 9.45 54.54 9.17 54.12 9.02L29.17 0.2C28.43 -0.07 27.63 -0.07 26.89 0.2L1.94 9.02C1.52 9.17 1.16 9.45 0.9 9.81C0.65 10.17 0.51 10.61 0.51 11.05C0.51 11.5 0.65 11.93 0.9 12.29C1.16 12.66 1.52 12.93 1.94 13.08L6.07 14.54C6.19 14.58 6.3 14.67 6.37 14.78C6.44 14.89 6.48 15.02 6.47 15.15L6.22 18.14C6.21 18.24 6.18 18.34 6.12 18.43C6.06 18.52 5.98 18.59 5.89 18.63C5.28 18.92 4.77 19.38 4.42 19.95C4.06 20.52 3.87 21.18 3.87 21.85L3.87 27.2C3.87 27.6 4.03 27.99 4.32 28.28C4.6 28.56 4.99 28.72 5.4 28.72L9.5 28.72C9.9 28.72 10.29 28.56 10.57 28.28C10.86 27.99 11.02 27.6 11.02 27.2L11.02 21.85C11.02 21.27 10.88 20.71 10.62 20.2C10.36 19.69 9.98 19.26 9.51 18.93C9.42 18.87 9.35 18.79 9.31 18.69C9.27 18.6 9.25 18.49 9.26 18.39L9.41 16.52C9.42 16.43 9.45 16.34 9.49 16.26C9.54 16.18 9.61 16.12 9.68 16.07C9.76 16.02 9.85 15.98 9.94 15.97C10.03 15.96 10.12 15.97 10.21 16L13.13 17.04C13.25 17.08 13.35 17.15 13.42 17.25C13.49 17.36 13.53 17.48 13.53 17.6L13.53 25.51C13.53 27.41 13.9 29.3 14.63 31.06C15.36 32.82 16.43 34.42 17.78 35.76C19.12 37.11 20.72 38.18 22.48 38.91C24.24 39.64 26.13 40.01 28.03 40.01C29.94 40.01 31.82 39.64 33.58 38.91C35.34 38.18 36.94 37.11 38.29 35.76C39.63 34.42 40.7 32.82 41.43 31.06C42.16 29.3 42.54 27.41 42.54 25.51L42.54 17.6L42.53 17.6ZM133.87 45.68L127.74 51.82C127.62 51.93 127.56 52.08 127.56 52.24C127.56 52.4 127.62 52.55 127.74 52.66L131.2 56.13C131.26 56.19 131.34 56.24 131.43 56.27C131.52 56.3 131.61 56.31 131.7 56.3C131.79 56.29 131.87 56.26 131.95 56.21C132.03 56.16 132.09 56.09 132.14 56.01L137.91 46.42C137.96 46.33 137.99 46.22 137.99 46.12C137.99 46.01 137.97 45.91 137.92 45.82C137.87 45.73 137.79 45.65 137.71 45.6C137.62 45.54 137.51 45.51 137.41 45.51C136.39 45.48 135.21 45.5 134.3 45.5C134.22 45.5 134.14 45.52 134.07 45.55C133.99 45.58 133.93 45.62 133.87 45.68L133.87 45.68ZM141.37 46.56L133.41 59.8C132.83 60.77 131.68 60.93 130.96 60.21L125.58 54.82C125.47 54.71 125.31 54.65 125.15 54.65C125 54.65 124.84 54.71 124.73 54.82L119.35 60.21C118.62 60.93 117.48 60.77 116.9 59.8L108.94 46.56C108.87 46.44 108.76 46.35 108.64 46.3C108.51 46.25 108.37 46.25 108.24 46.29C105.54 47.18 103.13 48.76 101.24 50.88C99.34 52.99 98.04 55.57 97.45 58.34C97.42 58.47 97.44 58.6 97.49 58.71C97.55 58.83 97.64 58.93 97.75 58.99C100.68 60.6 103.13 62.95 104.87 65.8C106.61 68.66 107.58 71.92 107.67 75.26C107.67 75.41 107.74 75.56 107.85 75.67C107.96 75.78 108.11 75.84 108.27 75.84L148.42 75.84C149.69 75.84 150.9 75.33 151.79 74.44C152.68 73.55 153.19 72.34 153.19 71.08L153.19 61.61C153.18 58.21 152.1 54.9 150.1 52.16C148.11 49.41 145.3 47.36 142.07 46.3C141.94 46.25 141.8 46.26 141.67 46.3C141.55 46.35 141.44 46.44 141.37 46.56L141.37 46.56ZM112.43 46.45C112.37 46.36 112.34 46.26 112.34 46.15C112.34 46.05 112.36 45.94 112.42 45.85C112.47 45.76 112.54 45.68 112.63 45.63C112.72 45.58 112.83 45.55 112.93 45.55L116.01 45.51C116.09 45.5 116.17 45.52 116.24 45.55C116.32 45.58 116.38 45.62 116.44 45.68L122.57 51.82C122.69 51.93 122.75 52.08 122.75 52.24C122.75 52.4 122.69 52.55 122.57 52.66L119.11 56.13C119.04 56.19 118.97 56.24 118.88 56.27C118.79 56.3 118.7 56.31 118.61 56.3C118.52 56.29 118.44 56.26 118.36 56.21C118.28 56.16 118.22 56.09 118.17 56.01L112.43 46.45L112.43 46.45ZM139.66 17.6C139.66 17.48 139.69 17.36 139.77 17.26C139.84 17.16 139.94 17.08 140.06 17.04L142.98 16.01C143.06 15.98 143.16 15.96 143.25 15.98C143.34 15.99 143.43 16.02 143.5 16.07C143.58 16.12 143.64 16.18 143.69 16.26C143.74 16.34 143.77 16.43 143.77 16.52L143.93 18.39C143.94 18.49 143.92 18.6 143.88 18.69C143.83 18.79 143.76 18.87 143.68 18.93C143.21 19.26 142.83 19.7 142.57 20.2C142.3 20.71 142.17 21.28 142.17 21.85L142.17 27.2C142.17 27.6 142.33 27.99 142.61 28.28C142.9 28.56 143.29 28.72 143.69 28.72L147.79 28.72C148.2 28.72 148.58 28.56 148.87 28.28C149.16 27.99 149.32 27.6 149.32 27.2L149.32 21.85C149.32 21.17 149.13 20.52 148.77 19.95C148.42 19.38 147.91 18.92 147.3 18.63C147.21 18.58 147.13 18.51 147.07 18.43C147.01 18.34 146.97 18.24 146.97 18.14L146.72 15.15C146.71 15.02 146.74 14.89 146.81 14.78C146.89 14.67 146.99 14.58 147.12 14.54L151.25 13.08C151.66 12.93 152.03 12.66 152.28 12.29C152.54 11.93 152.68 11.5 152.68 11.05C152.68 10.61 152.54 10.17 152.28 9.81C152.03 9.45 151.66 9.17 151.25 9.02L126.29 0.2C125.56 -0.07 124.75 -0.07 124.02 0.2L99.07 9.02C98.65 9.17 98.28 9.45 98.03 9.81C97.77 10.17 97.63 10.61 97.63 11.05C97.63 11.5 97.77 11.93 98.03 12.29C98.28 12.66 98.65 12.93 99.07 13.08L110.25 17.04C110.37 17.08 110.47 17.15 110.54 17.25C110.62 17.36 110.65 17.48 110.65 17.6L110.65 25.51C110.65 29.35 112.18 33.04 114.9 35.76C117.62 38.48 121.31 40.01 125.16 40.01C129 40.01 132.69 38.48 135.41 35.76C138.13 33.04 139.66 29.35 139.66 25.51L139.66 17.6L139.66 17.6ZM85.31 59.83L79.17 65.97C79.06 66.09 79 66.24 79 66.4C79 66.56 79.06 66.71 79.17 66.82L82.64 70.29C82.7 70.35 82.78 70.4 82.87 70.43C82.95 70.46 83.04 70.47 83.13 70.46C83.23 70.45 83.31 70.41 83.39 70.36C83.46 70.31 83.53 70.25 83.57 70.17L89.34 60.57C89.4 60.48 89.43 60.38 89.43 60.28C89.43 60.17 89.41 60.07 89.36 59.98C89.31 59.88 89.23 59.81 89.14 59.75C89.05 59.7 88.95 59.67 88.85 59.67C87.83 59.64 86.65 59.66 85.73 59.66C85.66 59.66 85.58 59.67 85.51 59.7C85.43 59.73 85.37 59.78 85.31 59.84L85.31 59.83ZM92.81 60.71C92.88 60.6 92.98 60.51 93.11 60.46C93.24 60.41 93.38 60.41 93.51 60.45C96.73 61.51 99.54 63.56 101.54 66.31C103.54 69.06 104.62 72.37 104.63 75.76L104.63 85.23C104.63 86.49 104.12 87.7 103.23 88.6C102.34 89.49 101.13 89.99 99.86 90L53.32 90C52.06 89.99 50.85 89.49 49.96 88.6C49.06 87.7 48.56 86.49 48.56 85.23L48.56 75.76C48.57 72.37 49.65 69.06 51.65 66.31C53.64 63.56 56.45 61.51 59.68 60.45C59.81 60.41 59.95 60.41 60.07 60.46C60.2 60.51 60.31 60.6 60.38 60.71L68.33 73.95C68.92 74.93 70.06 75.08 70.78 74.36L76.17 68.97C76.28 68.86 76.43 68.8 76.59 68.8C76.75 68.8 76.9 68.86 77.02 68.97L82.4 74.36C83.12 75.08 84.26 74.93 84.85 73.95L92.81 60.71L92.81 60.71ZM63.84 60.57L69.61 70.17C69.66 70.25 69.72 70.31 69.8 70.36C69.87 70.41 69.96 70.44 70.05 70.45C70.14 70.47 70.23 70.46 70.32 70.43C70.4 70.4 70.48 70.35 70.55 70.28L74.01 66.82C74.12 66.71 74.19 66.55 74.19 66.39C74.19 66.24 74.12 66.08 74.01 65.97L67.87 59.83C67.82 59.78 67.75 59.73 67.68 59.7C67.61 59.67 67.53 59.66 67.45 59.66C66.53 59.65 65.35 59.63 64.34 59.66C64.23 59.66 64.13 59.69 64.04 59.75C63.95 59.8 63.88 59.88 63.83 59.97C63.78 60.06 63.75 60.17 63.76 60.27C63.76 60.38 63.79 60.48 63.84 60.57Z" fill="#2F2F2F" fill-opacity="1.000000" fill-rule="evenodd"/>
</svg>
