<svg width="84.375732" height="85.781250" viewBox="0 0 84.3757 85.7812" fill="none" xmlns="http://www.w3.org/2000/svg" xmlns:xlink="http://www.w3.org/1999/xlink">
	<defs/>
	<path id="Vector" d="M36.37 62.89C35.62 62.69 35.18 61.92 35.38 61.17C35.58 60.42 36.35 59.97 37.1 60.17C40.65 61.12 44.17 62.27 47.77 63.01C49.62 63.24 51.15 62.65 51.67 60.73C52.13 58.99 51.03 57.34 49.39 56.77C44.46 55.87 39.68 54.14 35.92 52.78C30.45 50.81 28.98 50.35 23.6 53.47L13.48 59.33L21.66 73.77L22.82 73.1C23.16 72.91 23.54 72.87 23.88 72.96L45.48 78.74C48.22 79.48 50.81 79.14 53.22 77.65C63.15 71.54 73.08 65.44 83 59.33C84.53 58.38 84.74 55.81 83.83 54.35C81.83 51.14 76.35 53.78 74.05 55.12L57.65 64.68C55.07 66.18 52.34 66.59 49.41 66.12C44.9 65.36 40.75 64.06 36.37 62.89ZM53.49 13.14L58.92 16.27L42.15 25.95L42.15 33.27C42.15 33.46 42.25 33.63 42.41 33.72L46.22 35.92C46.57 36.13 47.01 35.87 47.01 35.47L47.01 28.76L63.78 19.08L69.2 22.21C69.54 22.4 69.73 22.73 69.73 23.12L69.73 41.26C69.73 41.65 69.54 41.98 69.2 42.18L53.49 51.25C53.16 51.44 52.77 51.44 52.44 51.25L36.72 42.18C36.39 41.98 36.2 41.65 36.2 41.26L36.2 23.12C36.2 22.73 36.39 22.4 36.72 22.21L52.44 13.14C52.77 12.94 53.16 12.94 53.49 13.14ZM64.32 5.18C64.87 4.63 65.76 4.63 66.31 5.18C66.86 5.73 66.86 6.62 66.31 7.17L62.17 11.31C61.62 11.86 60.73 11.86 60.18 11.31C59.63 10.76 59.63 9.87 60.18 9.32L64.32 5.18ZM39.61 7.17C39.07 6.62 39.07 5.73 39.61 5.18C40.16 4.63 41.05 4.63 41.6 5.18L45.74 9.32C46.29 9.87 46.29 10.76 45.74 11.31C45.2 11.86 44.3 11.86 43.76 11.31L39.61 7.17ZM51.56 1.4C51.56 0.62 52.19 0 52.96 0C53.74 0 54.37 0.62 54.37 1.4L54.37 7.26C54.37 8.03 53.74 8.66 52.96 8.66C52.19 8.66 51.56 8.03 51.56 7.26L51.56 1.4ZM8.79 56.74L21.83 79.79C22.46 80.91 22.07 82.33 20.95 82.96L16.51 85.48C15.4 86.11 13.97 85.71 13.34 84.6L0.3 61.55C-0.34 60.43 0.06 59 1.17 58.37L5.61 55.86C6.73 55.23 8.15 55.63 8.79 56.74ZM5.97 60.51C5.1 60.63 4.51 61.44 4.63 62.31C4.76 63.17 5.56 63.77 6.43 63.64C7.29 63.52 7.89 62.71 7.77 61.85C7.64 60.98 6.84 60.38 5.97 60.51Z" fill="#F59D1F" fill-opacity="1.000000" fill-rule="evenodd"/>
</svg>
