<svg width="90.000000" height="90.000000" viewBox="0 0 90 90" fill="none" xmlns="http://www.w3.org/2000/svg" xmlns:xlink="http://www.w3.org/1999/xlink">
	<defs>
		<clipPath id="clip1_318">
			<rect id="fi_1341299" rx="-0.065918" width="89.868164" height="89.868164" transform="translate(0.065918 0.065918)" fill="white" fill-opacity="0"/>
		</clipPath>
	</defs>
	<rect id="fi_1341299" rx="-0.065918" width="89.868164" height="89.868164" transform="translate(0.065918 0.065918)" fill="#FFFFFF" fill-opacity="0"/>
	<g clip-path="url(#clip1_318)">
		<path id="Vector" d="M34.27 21.09C26.76 21.09 19.45 29.62 16.32 34.26C18.77 37.85 26.1 47.46 34.27 47.46C41.78 47.46 49.09 38.93 52.23 34.29C49.77 30.69 42.44 21.09 34.27 21.09ZM34.27 42.18C29.91 42.18 26.36 38.63 26.36 34.27C26.36 29.91 29.91 26.36 34.27 26.36C38.63 26.36 42.18 29.91 42.18 34.27C42.18 38.63 38.63 42.18 34.27 42.18Z" fill="#F59D1F" fill-opacity="1.000000" fill-rule="nonzero"/>
		<path id="Vector" d="M69.92 58.74C68.88 57.69 67.12 57.7 66.1 58.84L64.42 60.7L60.27 56.55C65.42 50.55 68.55 42.78 68.55 34.27C68.55 15.37 53.17 0 34.27 0C15.37 0 0 15.37 0 34.27C0 53.17 15.37 68.55 34.27 68.55C42.78 68.55 50.55 65.42 56.55 60.27L60.89 64.62L59.03 66.69C58.1 67.73 58.14 69.32 59.13 70.31L76.5 87.68C79.59 90.77 84.59 90.77 87.68 87.68C90.77 84.59 90.77 79.58 87.68 76.49L69.92 58.74ZM57.63 35.62C57.21 36.32 47.27 52.73 34.27 52.73C21.28 52.73 11.33 36.32 10.92 35.62C10.42 34.79 10.42 33.75 10.92 32.92C11.33 32.22 21.28 15.82 34.27 15.82C47.27 15.82 57.21 32.22 57.63 32.92C58.13 33.75 58.13 34.79 57.63 35.62Z" fill="#F59D1F" fill-opacity="1.000000" fill-rule="nonzero"/>
		<path id="Vector" d="M34.27 31.64C32.82 31.64 31.64 32.82 31.64 34.27C31.64 35.73 32.82 36.91 34.27 36.91C35.73 36.91 36.91 35.73 36.91 34.27C36.91 32.82 35.73 31.64 34.27 31.64Z" fill="#F59D1F" fill-opacity="1.000000" fill-rule="nonzero"/>
	</g>
</svg>
