<svg width="30.000000" height="30.000000" viewBox="0 0 30 30" fill="none" xmlns="http://www.w3.org/2000/svg" xmlns:xlink="http://www.w3.org/1999/xlink">
		<defs>
		<clipPath id="clip1_300">
			<rect id="fi_483054" rx="-0.029297" width="29.941406" height="29.941406" transform="translate(0.029297 0.029297)" fill="white" fill-opacity="0"/>
		</clipPath>
	</defs>
	<rect id="fi_483054" rx="-0.029297" width="29.941406" height="29.941406" transform="translate(0.029297 0.029297)" fill="#FFFFFF" fill-opacity="0"/>
	<g clip-path="url(#clip1_300)">
		<path id="Vector" d="M15 0C6.72 0 0 6.72 0 15C0 23.27 6.72 30 15 30C23.27 30 30 23.27 30 15C30 6.72 23.27 0 15 0ZM20.96 15.52L12.21 21.15C12.11 21.21 11.99 21.25 11.87 21.25C11.77 21.25 11.66 21.22 11.57 21.17C11.37 21.06 11.25 20.85 11.25 20.62L11.25 9.37C11.25 9.14 11.37 8.93 11.57 8.82C11.77 8.71 12.02 8.72 12.21 8.84L20.96 14.47C21.14 14.58 21.25 14.78 21.25 15C21.25 15.21 21.14 15.41 20.96 15.52Z" fill="#FFFFFF" fill-opacity="1.000000" fill-rule="nonzero"/>
	</g>
</svg>
