<svg width="90.000000" height="90.000000" viewBox="0 0 90 90" fill="none" xmlns="http://www.w3.org/2000/svg" xmlns:xlink="http://www.w3.org/1999/xlink">
	<defs>
		<clipPath id="clip1_307">
			<rect id="fi_9541668" rx="-0.087891" width="89.824219" height="89.824219" transform="translate(0.087891 0.087891)" fill="white" fill-opacity="0"/>
		</clipPath>
	</defs>
	<rect id="fi_9541668" rx="-0.087891" width="89.824219" height="89.824219" transform="translate(0.087891 0.087891)" fill="#FFFFFF" fill-opacity="0"/>
	<g clip-path="url(#clip1_307)">
		<path id="Vector" d="M83.92 7.26C83.85 6.63 83.33 6.11 82.7 6.04C77.3 5.4 71.93 5.55 66.73 6.49C55.87 8.35 45.12 14.26 36.79 22.31C36.02 23.05 34.19 24.78 33.45 25.49C29.06 30.56 24.01 37.27 21.07 42.95C20.64 43.82 21.06 44.47 21.78 45.09C22.46 45.76 23.75 47.04 25.4 48.69C31.68 54.99 38.54 61.85 44.87 68.18L45.35 68.65C46.02 69.34 46.96 69.03 47.65 68.54C50.93 66.72 55.41 63.93 60.13 60.11C76.06 47.64 86.74 27.76 83.92 7.26ZM65.64 40.28C58.7 47.38 46.26 42.24 46.37 32.3C46.28 22.36 58.66 17.22 65.64 24.32C70.05 28.72 70.05 35.89 65.64 40.28Z" fill="#F59D1F" fill-opacity="1.000000" fill-rule="nonzero"/>
		<path id="Vector" d="M8.29 46.72C8.35 46.72 8.41 46.72 8.46 46.71L18.54 45.48C17.79 44.06 18.05 42.34 18.93 41C19.63 39.71 20.79 37.73 22.39 35.3C25.05 31.15 28.32 27.19 31.47 23.51C31.47 23.51 33.49 21.58 33.49 21.58C16.65 21.41 8.03 36.22 6.92 45.1C6.76 45.92 7.45 46.75 8.29 46.72Z" fill="#F59D1F" fill-opacity="1.000000" fill-rule="nonzero"/>
		<path id="Vector" d="M61.9 62.29C57.9 65.54 53.57 68.46 49.02 71C47.72 71.89 45.91 72.2 44.48 71.42C44.48 71.42 43.25 81.5 43.25 81.5C43.13 82.3 43.82 83.09 44.65 83.07C47.3 82.68 59.26 80.28 65.4 68.78C67.32 65.17 68.45 60.33 68.39 56.44C66.35 58.49 64.23 60.41 61.9 62.29Z" fill="#F59D1F" fill-opacity="1.000000" fill-rule="nonzero"/>
		<path id="Vector" d="M37.2 64.48C33.01 60.28 28.19 55.47 24.07 51.34L23.12 53.28C22.32 54.9 22.63 56.85 23.91 58.13L31.83 66.05C33.12 67.33 35.07 67.66 36.68 66.84L38.62 65.89C38.15 65.42 37.69 64.95 37.2 64.48Z" fill="#F59D1F" fill-opacity="1.000000" fill-rule="nonzero"/>
		<path id="Vector" d="M24.06 65.96C14.35 57.32 5.77 74.36 5.62 82.85C5.55 83.65 6.3 84.41 7.11 84.34C15.58 84.19 32.58 75.66 24.06 65.96Z" fill="#F59D1F" fill-opacity="1.000000" fill-rule="nonzero"/>
		<path id="Vector" d="M57.66 23.83C46.49 24.12 46.42 40.45 57.66 40.78C68.9 40.45 68.83 24.12 57.66 23.83Z" fill="#F59D1F" fill-opacity="1.000000" fill-rule="nonzero"/>
	</g>
</svg>
