<svg width="90.000000" height="90.000000" viewBox="0 0 90 90" fill="none" xmlns="http://www.w3.org/2000/svg" xmlns:xlink="http://www.w3.org/1999/xlink">
		<defs>
		<clipPath id="clip1_553">
			<rect id="fi_763330" rx="-0.087891" width="89.824219" height="89.824219" transform="translate(0.087891 0.087891)" fill="white" fill-opacity="0"/>
		</clipPath>
	</defs>
	<rect id="fi_763330" rx="-0.087891" width="89.824219" height="89.824219" transform="translate(0.087891 0.087891)" fill="#FFFFFF" fill-opacity="0"/>
	<g clip-path="url(#clip1_553)">
		<path id="Vector" d="M2.63 59.3C1.18 59.3 -3.06e-5 60.48 -3.06e-5 61.94L-3.06e-5 87.36C-3.06e-5 88.81 1.18 90 2.63 90L11.67 90L11.67 59.3L2.63 59.3Z" fill="#2F2F2F" fill-opacity="1.000000" fill-rule="nonzero"/>
		<path id="Vector" d="M87.36 59.3L78.32 59.3L78.32 90L87.36 90C88.81 90 90 88.81 90 87.36L90 61.94C90 60.48 88.81 59.3 87.36 59.3Z" fill="#2F2F2F" fill-opacity="1.000000" fill-rule="nonzero"/>
		<path id="Vector" d="M77.15 31.3L47.63 17.88L47.63 8.09L56.29 8.09C57.75 8.09 58.93 6.91 58.93 5.46L58.93 2.63C58.93 1.18 57.75 0 56.29 0L45 0C43.54 0 42.36 1.18 42.36 2.63L42.36 17.88L12.84 31.3C11.51 31.9 10.93 33.46 11.53 34.79C12.13 36.11 13.69 36.7 15.02 36.1L16.94 35.23L16.94 87.36C16.94 88.81 18.12 90 19.58 90L33.89 90L33.89 70.41C33.89 68.96 35.07 67.78 36.52 67.78L53.47 67.78C54.92 67.78 56.1 68.96 56.1 70.41L56.1 90L70.41 90C71.87 90 73.05 88.81 73.05 87.36L73.05 35.23L74.97 36.1C75.32 36.26 75.69 36.34 76.06 36.34C77.06 36.34 78.02 35.76 78.46 34.79C79.06 33.46 78.48 31.9 77.15 31.3ZM45 56.31C38.87 56.31 33.89 51.32 33.89 45.2C33.89 39.07 38.87 34.09 45 34.09C51.12 34.09 56.1 39.07 56.1 45.2C56.1 51.32 51.12 56.31 45 56.31Z" fill="#2F2F2F" fill-opacity="1.000000" fill-rule="nonzero"/>
	</g>
</svg>
